<?xml version="1.0"?>
<svg xmlns="http://www.w3.org/2000/svg" height="512px" viewBox="0 -36 512 512" width="512px"><g><path d="m488.46875 208.417969h-16.035156c-4.144532 0-7.5 3.359375-7.5 7.5 0 4.144531 3.355468 7.5 7.5 7.5h16.035156c4.703125 0 8.53125 3.828125 8.53125 8.535156 0 4.703125-3.828125 8.53125-8.53125 8.53125h-362.179688c.605469-2.75.9375-5.601563.9375-8.53125s-.332031-5.785156-.9375-8.535156h314.078126c4.144531 0 7.5-3.355469 7.5-7.5 0-4.140625-3.355469-7.5-7.5-7.5h-320.921876c-7.21875-9.71875-18.777343-16.03125-31.785156-16.03125-13.007812 0-24.566406 6.3125-31.78125 16.03125h-32.347656c-12.972656 0-23.53125 10.558593-23.53125 23.53125 0 12.976562 10.558594 23.535156 23.53125 23.535156h32.347656c7.214844 9.71875 18.773438 16.03125 31.78125 16.03125 13.007813 0 24.566406-6.3125 31.785156-16.03125h369.023438c12.972656 0 23.53125-10.558594 23.53125-23.535156 0-12.972657-10.558594-23.53125-23.53125-23.53125zm-464.9375 32.066406c-4.703125 0-8.53125-3.828125-8.53125-8.53125 0-4.707031 3.828125-8.535156 8.53125-8.535156h25.5c-.605469 2.75-.933594 5.605469-.933594 8.535156s.328125 5.78125.933594 8.53125zm64.128906 16.03125c-13.542968 0-24.5625-11.019531-24.5625-24.5625 0-13.546875 11.019532-24.566406 24.5625-24.566406 13.542969 0 24.566406 11.019531 24.566406 24.566406 0 13.542969-11.019531 24.5625-24.566406 24.5625zm0 0" data-original="#000000" class="active-path" data-old_color="#000000" fill="#FFFFFF"/><path d="m488.46875 112.226562h-96.476562c-7.214844-9.722656-18.773438-16.035156-31.78125-16.035156-13.007813 0-24.566407 6.3125-31.785157 16.035156h-304.894531c-12.972656 0-23.53125 10.554688-23.53125 23.53125 0 12.976563 10.558594 23.53125 23.53125 23.53125h304.894531c7.214844 9.722657 18.773438 16.03125 31.785157 16.03125 13.007812 0 24.566406-6.308593 31.78125-16.03125h96.476562c12.972656 0 23.53125-10.554687 23.53125-23.53125 0-12.976562-10.558594-23.53125-23.53125-23.53125zm-464.9375 32.0625c-4.703125 0-8.53125-3.828124-8.53125-8.53125 0-4.703124 3.828125-8.53125 8.53125-8.53125h298.050781c-.605469 2.75-.9375 5.601563-.9375 8.53125 0 2.929688.332031 5.78125.9375 8.53125zm336.679688 16.03125c-13.546876 0-24.566407-11.019531-24.566407-24.5625 0-13.542968 11.019531-24.5625 24.566407-24.5625 13.542968 0 24.5625 11.019532 24.5625 24.5625 0 13.542969-11.019532 24.5625-24.5625 24.5625zm128.257812-16.03125h-89.628906c.605468-2.75.933594-5.601562.933594-8.53125 0-2.929687-.328126-5.78125-.933594-8.53125h89.628906c4.703125 0 8.53125 3.828126 8.53125 8.53125 0 4.703126-3.828125 8.53125-8.53125 8.53125zm0 0" data-original="#000000" class="active-path" data-old_color="#000000" fill="#FFFFFF"/><path d="m23.53125 63.097656h112.507812c7.21875 9.71875 18.777344 16.03125 31.785157 16.03125 13.007812 0 24.566406-6.3125 31.78125-16.03125h288.863281c12.976562 0 23.53125-10.558594 23.53125-23.535156 0-12.972656-10.558594-23.53125-23.53125-23.53125h-288.863281c-7.214844-9.71875-18.773438-16.03125-31.78125-16.03125-13.007813 0-24.566407 6.3125-31.785157 16.03125h-16.3125c-4.144531 0-7.5 3.359375-7.5 7.5 0 4.144531 3.355469 7.5 7.5 7.5h9.46875c-.605468 2.75-.9375 5.605469-.9375 8.53125 0 2.929688.332032 5.785156.9375 8.535156h-105.664062c-4.703125 0-8.53125-3.828125-8.53125-8.535156 0-4.703125 3.828125-8.53125 8.53125-8.53125h64.128906c4.140625 0 7.5-3.355469 7.5-7.5 0-4.140625-3.359375-7.5-7.5-7.5h-64.128906c-12.972656 0-23.53125 10.558594-23.53125 23.53125 0 12.976562 10.558594 23.535156 23.53125 23.535156zm464.9375-32.066406c4.703125 0 8.53125 3.828125 8.53125 8.53125 0 4.707031-3.828125 8.535156-8.53125 8.535156h-282.019531c.609375-2.75.9375-5.605468.9375-8.535156 0-2.925781-.328125-5.78125-.9375-8.53125zm-320.644531-16.03125c13.542969 0 24.5625 11.019531 24.5625 24.5625 0 13.546875-11.019531 24.566406-24.5625 24.566406-13.546875 0-24.566407-11.019531-24.566407-24.566406 0-13.542969 11.019532-24.5625 24.566407-24.5625zm0 0" data-original="#000000" class="active-path" data-old_color="#000000" fill="#FFFFFF"/><path d="m256 312.628906c-35.074219 0-63.613281 28.535156-63.613281 63.613282 0 35.074218 28.539062 63.613281 63.613281 63.613281s63.613281-28.539063 63.613281-63.613281c0-35.078126-28.539062-63.613282-63.613281-63.613282zm0 112.226563c-26.804688 0-48.613281-21.808594-48.613281-48.613281 0-26.804688 21.808593-48.613282 48.613281-48.613282s48.613281 21.808594 48.613281 48.613282c0 26.804687-21.808593 48.613281-48.613281 48.613281zm0 0" data-original="#000000" class="active-path" data-old_color="#000000" fill="#FFFFFF"/><path d="m87.660156 312.628906c-35.074218 0-63.613281 28.535156-63.613281 63.613282 0 35.074218 28.539063 63.613281 63.613281 63.613281 35.078125 0 63.613282-28.539063 63.613282-63.613281 0-35.078126-28.535157-63.613282-63.613282-63.613282zm0 112.226563c-26.804687 0-48.613281-21.808594-48.613281-48.613281 0-26.804688 21.808594-48.613282 48.613281-48.613282 26.808594 0 48.613282 21.808594 48.613282 48.613282 0 26.804687-21.804688 48.613281-48.613282 48.613281zm0 0" data-original="#000000" class="active-path" data-old_color="#000000" fill="#FFFFFF"/><path d="m424.339844 312.628906c-35.078125 0-63.613282 28.535156-63.613282 63.613282 0 35.074218 28.535157 63.613281 63.613282 63.613281 35.074218 0 63.613281-28.539063 63.613281-63.613281 0-35.078126-28.539063-63.613282-63.613281-63.613282zm0 112.226563c-26.808594 0-48.613282-21.808594-48.613282-48.613281 0-26.804688 21.808594-48.613282 48.613282-48.613282 26.804687 0 48.613281 21.808594 48.613281 48.613282 0 26.804687-21.808594 48.613281-48.613281 48.613281zm0 0" data-original="#000000" class="active-path" data-old_color="#000000" fill="#FFFFFF"/><path d="m280.046875 368.742188c-4.140625 0-7.5 3.355468-7.5 7.5 0 9.125-7.421875 16.546874-16.546875 16.546874s-16.546875-7.421874-16.546875-16.546874 7.421875-16.550782 16.546875-16.550782c4.140625 0 7.5-3.355468 7.5-7.5 0-4.140625-3.359375-7.5-7.5-7.5-17.394531 0-31.546875 14.152344-31.546875 31.550782 0 17.394531 14.152344 31.546874 31.546875 31.546874s31.546875-14.152343 31.546875-31.546874c0-4.144532-3.355469-7.5-7.5-7.5zm0 0" data-original="#000000" class="active-path" data-old_color="#000000" fill="#FFFFFF"/><path d="m448.386719 368.742188c-4.140625 0-7.5 3.355468-7.5 7.5 0 9.125-7.421875 16.546874-16.546875 16.546874s-16.550782-7.421874-16.550782-16.546874 7.425782-16.550782 16.550782-16.550782c4.140625 0 7.5-3.355468 7.5-7.5 0-4.140625-3.359375-7.5-7.5-7.5-17.398438 0-31.550782 14.152344-31.550782 31.550782 0 17.394531 14.152344 31.546874 31.550782 31.546874 17.394531 0 31.546875-14.152343 31.546875-31.546874 0-4.144532-3.359375-7.5-7.5-7.5zm0 0" data-original="#000000" class="active-path" data-old_color="#000000" fill="#FFFFFF"/><path d="m111.710938 368.742188c-4.144532 0-7.5 3.355468-7.5 7.5 0 9.125-7.425782 16.546874-16.550782 16.546874s-16.546875-7.421874-16.546875-16.546874 7.421875-16.550782 16.546875-16.550782c4.144532 0 7.5-3.355468 7.5-7.5 0-4.140625-3.355468-7.5-7.5-7.5-17.394531 0-31.546875 14.152344-31.546875 31.550782 0 17.394531 14.152344 31.546874 31.546875 31.546874 17.398438 0 31.550782-14.152343 31.550782-31.546874 0-4.144532-3.359376-7.5-7.5-7.5zm0 0" data-original="#000000" class="active-path" data-old_color="#000000" fill="#FFFFFF"/></g> </svg>
