<?xml version="1.0"?>
<svg xmlns="http://www.w3.org/2000/svg" id="Layer_1" enable-background="new 0 0 514.135 514.135" viewBox="0 0 514.135 514.135" width="512px" height="512px"><g><g><g><path d="m460.801 192.001c-17.066 0-25.6 6.4-34.133 12.8-4.267 2.133-10.667 2.133-12.8-2.133-2.133-2.133-2.133-4.267-2.133-8.533l8.533-98.133c0-2.133 0-6.4-2.133-8.533s-4.267-4.267-8.533-4.267h-96c-8.533 0-14.934 4.267-19.2 10.667-4.267 6.4-4.267 14.934 0 21.333 4.267 6.4 6.4 10.667 6.4 21.333 0 17.066-19.2 32-42.667 32s-42.667-14.934-42.667-32c0-8.533 2.133-14.934 6.4-21.333 4.267-6.4 4.267-14.934 0-21.333s-10.667-10.667-19.2-10.667h-96c-2.133 0-6.4 2.133-8.533 4.267-2.133 2.133-2.133 4.267-2.133 8.533l8.533 98.133c0 4.267-2.133 6.4-2.133 8.533-4.267 4.267-8.533 6.4-14.934 2.133-8.533-6.4-17.066-10.667-34.133-10.667-29.867 0-53.333 27.733-53.333 64s23.467 64 53.333 64c17.066 0 25.6-6.4 34.133-12.8 4.267-2.133 10.667-2.133 12.8 2.133 2.133 2.133 2.133 4.267 2.133 8.533l-8.533 98.133c0 2.133 0 6.4 2.133 8.533s4.267 4.267 8.533 4.267h96c8.533 0 14.934-4.267 19.2-10.667 4.267-6.4 4.267-14.934 0-21.333-4.267-6.4-6.4-10.667-6.4-21.333 0-17.066 19.2-32 42.667-32s42.667 14.934 42.667 32c0 8.533-2.133 14.934-6.4 21.333-4.267 6.4-4.267 14.934 0 21.333s10.667 10.667 19.2 10.667h96c2.133 0 6.4-2.133 8.533-4.267 2.133-2.133 2.133-4.267 2.133-8.533l-8.533-98.133c0-4.267 2.133-6.4 2.133-8.533 4.267-4.267 8.533-6.4 14.934-2.133 8.533 6.4 17.066 10.667 34.133 10.667 29.867 0 53.333-27.733 53.333-64 .001-36.267-23.466-64-53.333-64z" data-original="#000000" class="active-path" data-old_color="#000000" fill="#FFFFFF"/></g></g><g/><g/><g/><g/><g/><g/><g/><g/><g/><g/><g/><g/><g/><g/><g/></g> </svg>
