<?xml version="1.0"?>
<svg xmlns="http://www.w3.org/2000/svg" xmlns:xlink="http://www.w3.org/1999/xlink" version="1.1" id="Layer_1" x="0px" y="0px" viewBox="0 0 512 512" style="enable-background:new 0 0 512 512;" xml:space="preserve" width="512px" height="512px" class=""><g><g>
	<path d="M446.87,228.906H297.258v-30.309h93.333c7.738,0,15.196-2.322,21.567-6.715l33.288-22.956   c10.284-7.092,16.424-18.784,16.424-31.275s-6.14-24.184-16.424-31.275L412.158,83.42c-6.371-4.393-13.829-6.715-21.567-6.715   h-93.333V38.879C297.258,17.441,279.816,0,258.379,0c-21.438,0-38.88,17.441-38.88,38.879v37.826H65.13c-8.284,0-15,6.716-15,15   v91.893c0,8.284,6.716,15,15,15h154.369v30.309h-98.09c-7.738,0-15.196,2.322-21.567,6.715l-33.288,22.956   c-10.284,7.092-16.424,18.784-16.424,31.275s6.14,24.184,16.424,31.275l33.288,22.956c6.371,4.393,13.829,6.715,21.567,6.715h98.09   V482h-40.098c-8.284,0-15,6.716-15,15s6.716,15,15,15h157.954c8.284,0,15-6.716,15-15s-6.716-15-15-15h-40.098V350.799H446.87   c8.284,0,15-6.716,15-15v-91.893C461.87,235.622,455.154,228.906,446.87,228.906z M431.87,320.799H121.409   c-1.628,0-3.196-0.488-4.536-1.413l-33.288-22.956c-3.006-2.073-3.455-5.011-3.455-6.578s0.449-4.505,3.455-6.578l33.288-22.956   c1.34-0.924,2.908-1.413,4.536-1.413H431.87V320.799z M80.13,106.705h310.461c1.628,0,3.196,0.488,4.536,1.413l33.288,22.956   c3.006,2.073,3.455,5.011,3.455,6.578s-0.449,4.505-3.455,6.578l-33.288,22.956c-1.34,0.924-2.908,1.413-4.536,1.413H80.13V106.705   z M249.499,38.879c0-4.896,3.983-8.879,8.88-8.879c4.896,0,8.879,3.983,8.879,8.879v37.826h-17.759V38.879z M249.499,198.598   h17.759v30.309h-17.759V198.598z M267.258,482h-17.759V350.799h17.759V482z" data-original="#000000" class="active-path" data-old_color="#000000" fill="#FFFFFF"/>
</g></g> </svg>
